<svg width="677" height="626" viewBox="0 0 677 626" fill="none" xmlns="http://www.w3.org/2000/svg">
<path fill-rule="evenodd" clip-rule="evenodd" d="M408.064 312.884L634.619 625.769L676.507 595.855L471.684 312.884L676.507 29.9134L634.619 0L408.064 312.884ZM466.581 623.237L292.961 312.886L466.581 2.535L511.746 27.503L352.089 312.886L511.746 598.39L466.581 623.237ZM187.823 312.886L309.357 620.222L357.436 601.406L243.43 312.886L357.436 24.367L309.357 5.55054L187.823 312.886ZM159.169 616.601L88.9924 312.884L159.169 9.16631L209.555 20.7457L141.928 312.884L209.555 605.021L159.169 616.601ZM51.7216 14.9613H0V610.816H51.7216V14.9613Z" fill="black"/>
</svg>
